<svg width="150" height="100" viewBox="0 0 150 100" fill="none" xmlns="http://www.w3.org/2000/svg">
    <rect x="2" y="2" width="146" height="96" rx="8" fill="#f9fafb" stroke="#e5e7eb" stroke-width="2"/>

    <text x="75" y="22" font-family="Arial, Helvetica, sans-serif" font-size="12" font-weight="bold" text-anchor="middle" fill="#1f2937">
        Jeu des familles
    </text>

    <!-- Card Icon -->
    <g transform="translate(15, 12) scale(0.8)">
        <rect x="0" y="0" width="18" height="24" rx="3" fill="#fff" stroke="#9ca3af" stroke-width="1.5"/>
        <path d="M4 6H14" stroke="#ef4444" stroke-width="1.5" stroke-linecap="round"/>
        <path d="M4 10H14" stroke="#3b82f6" stroke-width="1.5" stroke-linecap="round"/>
        <path d="M4 14H10" stroke="#22c55e" stroke-width="1.5" stroke-linecap="round"/>
    </g>

    <!-- Family Color Swatches -->
    <g transform="translate(22, 40)">
        <rect x="0" y="0" width="15" height="15" rx="3" fill="#dc2626"/>
        <rect x="20" y="0" width="15" height="15" rx="3" fill="#22c55e"/>
        <rect x="40" y="0" width="15" height="15" rx="3" fill="#4f46e5"/>
        <rect x="60" y="0" width="15" height="15" rx="3" fill="#eab308"/>
        <rect x="80" y="0" width="15" height="15" rx="3" fill="#d946ef"/>
        <rect x="0" y="20" width="15" height="15" rx="3" fill="#06b6d4"/>
        <rect x="20" y="20" width="15" height="15" rx="3" fill="#f97316"/>
    </g>

</svg>
